<svg xmlns="http://www.w3.org/2000/svg" xmlns:xlink="http://www.w3.org/1999/xlink" id="Layer_1" x="0px" y="0px" viewBox="0 0 398 95" style="enable-background:new 0 0 398 95;" xml:space="preserve"> <style type="text/css"> .st0{fill:#FFFFFF;} </style> <g> <path class="st0" d="M266.5,49.1c0,8.1,0,16.3,0,24.4c0,1-0.3,1.7-0.9,2.4c-10.8,13.2-28.7,18.5-45,13.4 c-16.3-5.1-28-19.6-29.4-36.6c-2.2-25.9,18.8-47.5,44.7-45.9c12.1,0.8,22.1,6.1,29.9,15.3c0.6,0.7,0.8,1.4,0.8,2.3 C266.5,32.7,266.5,40.9,266.5,49.1z"></path> <path class="st0" d="M277.4,49.3c0-13,0-26,0-39.1c0-1.3,0.4-1.6,1.7-1.6c13.8,0,27.6,0,41.5,0c16.9,0.1,30.5,12.5,32.3,29.5 c1.7,16.1-9.4,31.2-25.6,34.7c-1.8,0.4-3.6,0.6-5.5,0.6c-0.9,0-1.2,0.3-1.2,1.2c0,4.5,0,9.1,0.1,13.6c0,1.2-0.4,1.5-1.5,1.5 c-13.4,0-26.7,0-40.1,0c-1.4,0-1.6-0.4-1.6-1.7C277.4,75.2,277.4,62.3,277.4,49.3z"></path> <path class="st0" d="M138.3,49.2c0-13,0-25.9,0-38.9c0-1.4,0.4-1.6,1.7-1.6c13.3,0,26.6,0,40,0c1.2,0,1.6,0.2,1.6,1.5 c0,26,0,52.1,0,78.1c0,1.2-0.4,1.5-1.5,1.5c-13.4,0-26.7,0-40.1,0c-1.4,0-1.6-0.4-1.6-1.7C138.3,75.1,138.3,62.2,138.3,49.2z"></path> <path class="st0" d="M86.4,8.6c14.4,27.1,28.7,54,43.1,81c-28.8,0-57.4,0-86.2,0C57.7,62.7,72,35.8,86.4,8.6z"></path> </g> </svg>