<svg xmlns="http://www.w3.org/2000/svg" xmlns:xlink="http://www.w3.org/1999/xlink" id="Layer_1" x="0px" y="0px" viewBox="0 0 398 95" style="enable-background:new 0 0 398 95;" xml:space="preserve"> <style type="text/css"> .st0{fill:#FFFFFF;} </style> <g> <g> <path class="st0" d="M159.6,81.3h-3.9v-1.4h9.5v1.4h-3.9v10.1h-1.6L159.6,81.3L159.6,81.3z"></path> <path class="st0" d="M166.9,79.9h3.4c1.2,0,1.7,0.2,2.2,0.3c1.2,0.5,1.9,1.6,1.9,3.1c0,1.4-0.8,2.6-2,3.1l0,0c0,0,0.2,0.2,0.3,0.5 l2.5,4.5h-1.7l-2.5-4.5h-2.5v4.5h-1.6C166.9,91.4,166.9,79.9,166.9,79.9z M170.8,85.3c1.2,0,2-0.8,2-2c0-0.8-0.3-1.4-0.9-1.7 c-0.3-0.2-0.6-0.3-1.6-0.3h-1.9v4H170.8z"></path> <path class="st0" d="M183.5,88h-4.4l-1.1,3.3h-1.6l4-11.3h1.7l4,11.3h-1.7L183.5,88z M181.4,81.5c0,0-0.3,1.1-0.5,1.6l-1.2,3.7 h3.4l-1.2-3.6C181.7,82.4,181.5,81.5,181.4,81.5L181.4,81.5z"></path> <path class="st0" d="M186.2,79.9h1.7l2.8,8.1c0.2,0.6,0.5,1.6,0.5,1.6l0,0c0,0,0.2-0.9,0.5-1.6l2.8-8.1h1.7l-4.2,11.3h-1.6 L186.2,79.9z"></path> <path class="st0" d="M198,79.9h6.7v1.4h-5v3.6h4v1.4h-4V90h5.3v1.4h-6.8L198,79.9L198,79.9z"></path> <path class="st0" d="M207.2,79.9h1.6V90h5.1v1.4h-6.7V79.9z"></path> <path class="st0" d="M224.9,79.6c2.8,0,4.2,1.4,4.2,1.4l-0.8,1.2c0,0-1.2-1.1-3.3-1.1c-2.6,0-4.4,2-4.4,4.4c0,2.6,1.9,4.5,4.2,4.5 c2,0,3.3-1.4,3.3-1.4v-1.7h-2.3v-1.4h3.7v5.7h-1.4v-0.8c0-0.3,0-0.5,0-0.5l0,0c0,0-1.2,1.4-3.6,1.4c-3.1,0-5.6-2.5-5.6-5.9 C219,82.2,221.5,79.6,224.9,79.6z"></path> <path class="st0" d="M232.3,79.9h3.4c1.2,0,1.7,0.2,2.2,0.3c1.2,0.5,1.9,1.6,1.9,3.1c0,1.4-0.8,2.6-2,3.1l0,0c0,0,0.2,0.2,0.3,0.5 l2.5,4.5h-1.9l-2.5-4.5h-2.5v4.5h-1.6V79.9H232.3z M236.2,85.3c1.2,0,2-0.8,2-2c0-0.8-0.3-1.4-0.9-1.7c-0.3-0.2-0.6-0.3-1.6-0.3 h-1.9v4H236.2z"></path> <path class="st0" d="M247.7,79.6c3.3,0,5.9,2.5,5.9,5.7c0,3.4-2.5,6.1-5.9,6.1s-5.9-2.5-5.9-5.9C241.8,82.2,244.5,79.6,247.7,79.6 z M247.7,90c2.3,0,4.2-1.9,4.2-4.5c0-2.5-1.9-4.4-4.2-4.4s-4.2,1.9-4.2,4.4C243.5,88,245.4,90,247.7,90z"></path> <path class="st0" d="M256,79.9h1.6v7.3c0,1.7,1.1,2.8,3,2.8c1.7,0,3-1.1,3-2.8v-7.3h1.6v7.3c0,2.5-1.9,4.2-4.5,4.2 c-2.6,0-4.5-1.7-4.5-4.2V79.9z"></path> <path class="st0" d="M268.1,79.9h4.2c2,0,3.6,1.4,3.6,3.6s-1.6,3.6-3.6,3.6h-2.6v4.2h-1.6V79.9z M272,85.7c1.4,0,2.2-0.9,2.2-2.2 s-0.8-2.2-2.2-2.2h-2.3v4.4H272z"></path> </g> <g> <path class="st0" d="M128.1,29.9H122v-7.6h6.4V9.3h8.7v12.9h11.3v7.6h-11.3v21c0,9.3,6.5,10.6,9.9,10.6c1.2,0,2.2-0.2,2.2-0.2v7.9 c0,0-1.2,0.2-3.1,0.2c-6.1,0-18-1.9-18-17.6C128.1,51.8,128.1,29.9,128.1,29.9z"></path> <path class="st0" d="M155.9,63.9l23.6-29.7c2-2.5,3.9-4.4,3.9-4.4v-0.2c0,0-1.6,0.2-4.5,0.2h-23.2v-7.8h39.9v5.1L172,57.1 c-2,2.5-4,4.2-4,4.2v0.2c0,0,1.6-0.2,4.7-0.2h23.8V69h-40.6V63.9z"></path> <path class="st0" d="M220.5,21c13.2,0,20.4,9.8,20.4,21.9c0,1.2-0.3,3.9-0.3,3.9h-34.2c0.5,10.3,7.8,15.5,16.2,15.5 c8.1,0,14-5.4,14-5.4l3.7,6.5c0,0-7,6.7-18.2,6.7c-14.8,0-24.9-10.7-24.9-24.6C197.1,30.6,207.2,21,220.5,21z M231.7,40.1 c-0.3-8.1-5.3-12-11.3-12c-6.8,0-12.4,4.2-13.7,12H231.7z"></path> <path class="st0" d="M249,69.5V3.6h9v65.9H249z"></path> <path class="st0" d="M267,69.5V3.6h9v65.9H267z"></path> </g> </g> </svg>