<svg xmlns="http://www.w3.org/2000/svg" xmlns:xlink="http://www.w3.org/1999/xlink" id="Layer_1" x="0px" y="0px" viewBox="0 0 398 95" style="enable-background:new 0 0 398 95;" xml:space="preserve"> <style type="text/css"> .st0{fill:#E51F2F;} .st1{fill-rule:evenodd;clip-rule:evenodd;fill:#FFFFFF;} .st2{fill:#FFFFFF;} .st3{fill:#F79421;} .st4{fill:#DA205E;} .st5{fill:#652F8F;} .st6{fill:#E90C8B;} .st7{fill:#1B75BC;} .st8{fill:#D7DF28;} </style> <g> <path class="st0" d="M51.8,6.7c-0.1-0.9,0.6-1.4,0.5-2c-0.5-0.2,0.2-0.9-0.4-1.2c-0.9,0.7-0.1-0.7-0.6-0.7C50,4,48.7,5.5,47.7,7.1 c-4.1,6.4-7.4,13-10,20.1c-0.5,0.9-1,1.9-1.2,3c-0.5,0.5-0.5,1.6-0.8,2.1c0.3,0.6-0.3,1-0.2,1.6c-0.4,0.1-0.1,0.9-0.5,0.5 c-0.3,0,0.3,0.9-0.1,1.5c0,0.5-0.5,0.2-0.5,0.5c0.6,0.2-0.6,0.1,0,0.6c0.2,0.2-0.1,0.6-0.2,0.9c-0.2-0.4-0.3,0.4-0.5,0.7 c-0.1,0,0.3,0,0.2,0.2c-0.4,0.5,0,0.5,0,1c-0.1,0.1-0.1,0.2-0.2,0.1c-0.1-0.1,0.1-0.2-0.1-0.2c0.2,0.3-0.4,1.8-0.4,1.8l0.4,0 c0,0,0.8-0.4-0.7,1.5c-0.1-0.2-0.2-0.4-0.2,0c0.3,0.7-0.6,0.9-0.3,1.3c-0.2,0.5,0.1,1.4-0.6,1.6c0.1,0.2,0.3,0,0.2,0.3 c-0.6,3.1-0.9,3-0.9,3s0.5,0.4,0.1,0.7c-0.3-0.4-0.3,0.6-0.1,0.3c0.2,0.4-0.2,1-0.1,1.5c-0.2,0.2-0.9,1-0.2,0.3 c-0.4,0.6-0.1,1.7-0.7,2.1c0.3,0.4-0.1,1.1,0.1,1.5c-0.6,0.6-0.3,1.3-0.6,2c0.1,0.2,0.1,0.5-0.1,0.6c-0.3,1.3-0.3,2.4-0.5,3.8 c0,0.3-0.2,0.8-0.4,0.8c-0.3,1.1-0.3,3-0.7,4.3c0.4,1-0.1,2-0.1,2.8c0.1,0,0.2,0,0.3,0c0.1,0,0.1,0.1,0.1,0.2 c-0.7-0.1,0.1,0.5-0.4,0.6c0,0,0,0.1-0.1,0.1c0.1,0,0.2-0.1,0.2,0.1C27,71,27.8,71.7,27.3,72c-0.3,0.9-0.4,1.8-0.4,2.5 c0.3,0.2-0.4,0.6,0,0.5c0.2,0.1-0.1,0.2-0.1,0.2c-0.1,0.4-0.5,1.1,0,1.5c0.5-0.3-0.1-0.1-0.1-0.4c0.2-0.1,0.3-0.3,0.4-0.5 c-0.6-0.6,1.2-0.9,0-1.4c0.3-0.3,0.3,0.2,0.5,0.2c0.3-0.5-0.3-0.8-0.4-1.2c0.9-0.4,0.7-1,1-1.9c-0.6-0.5,0.5-0.6,0.5-1 c-1.2-0.4,0.8-0.9,0.1-1.7c0.1-0.2,0.4-0.8,0-0.3c0.2-0.2-0.2-0.7,0.3-0.6c-0.1-0.5,0.3-1,0.4-1.4c0.4-0.3-0.2-1,0.4-1.2 c-0.3-0.3-0.4-0.8-0.1-0.8c0.3,0,0.3-0.6,0-0.8c0.7-1.5,0.6-2.9,1-4c0.1-0.4,0.1-0.9,0.3-1.1c0-2.1,1.2-4.1,1.5-6.1 c0.4-0.4-0.1-1.3,0.6-1.1c-0.7,1.6-0.6,3.2-1.3,4.6c0.3,0.5-0.2,2.3-0.6,3c-0.2,0.3-0.3,0.8-0.1,1.1C31,60.9,30.7,61.3,31,62 c-0.4,0.3,0.4,1.3-0.4,1.7c-0.4,1.8-0.9,3.4-1,5.2c0.1-0.2,0-0.3,0.2-0.3c0.2,0.1,0.1,0.3,0.1,0.5c-0.2,0.1-0.1,1.2-0.4,0.5 c-0.5,0.9-0.1,1.8-0.6,2.8c0.5,0.8-0.6,1-0.3,1.8c0,0.5-0.4,1-0.5,1.4c0.1,0.5,0.2,0.1,0.2-0.1c0.3-0.2,0.3,0.1,0.3,0.3 c0.1-0.2,0.3-0.3,0.2-0.6c0-0.2-0.2-0.4-0.1,0c-0.1,0.1-0.1,0.1-0.2,0.1c-0.1-0.1-0.1-0.1-0.1-0.2c0.1-0.3,0.4-1.1,0.4-0.4 c0.3-0.8,0.7-2.3,0.7-3.2c0.1,0,0.1-0.1,0.2-0.1c-0.2-0.7,0.7-1.2,0.5-1.9c0-0.1,0.1-0.4,0.2-0.6c-0.2,0.3-0.2-0.1-0.3-0.3 c0.8-0.3,0.2-0.9,0.7-1.3c0.3,1.3-0.6,2.8-0.4,4c0.1-0.7,0.2-1.1,0.2-1.6c0.2-0.3,0.4-0.6,0.3-1.1c0.4-0.5,0.2-1.1,0.5-1.5 c0.3-0.3,0.1-0.6,0.4-0.7c-0.1-0.1-0.2,0-0.2-0.1c0.3-0.1-0.1-0.9,0.3-0.4c0.3-0.2-0.4-1.1,0.2-1.2c-0.4-1,0.9-1.7,0.5-2.7 c0-0.5,0.2-1.1,0.4-1.9c0.4-0.2,0.1-1,0.5-0.5c-0.5,2.6-0.8,4.8-1.4,7.4c0.4-0.3,0.2-0.6,0.5-0.6c-0.3-1,0.3-1,0.3-1.4 c0.1-0.2-0.3-0.4,0-0.5c0.3,0.1,0.1-0.1,0-0.2c0.4-0.6,0.3,0.2,0.4,0.3c0.1-0.1,0-0.2,0-0.3c0.1-0.1,0.2-0.4,0.3-0.1 c-0.5,1.4,0.3-0.4,0.1-0.2c-0.5,0.3-0.8,0.1-0.7-0.4c-0.1-0.6,0.3-0.7,0.6-1.3c0.2,0.2,0.1,0.5,0.1,0.8c0.2-0.6,0.1-1.2,0.7-1.4 c-0.6-0.1-0.1-0.8-0.6-0.6c-0.3-0.1-0.1-0.4,0.1-0.6c0.6-0.3,0.1,0.3,0.3,0.5c0.3-0.7,0.1-0.4,0.5-1.1c-0.3-0.3,0-0.6,0-0.6 c0.1-0.4,0.4-1,0.7-1.5c0-0.5-0.7-0.2-0.9,0c-0.1-0.1,0-0.3,0-0.5c0.2-0.3,0.9,0,0.6-0.2c0.3-0.1,0.6-0.2,0.7-0.6 c-0.6-0.6,0.3-0.8,0-1.4c0.1-0.1,0.2-0.1,0.3,0c0.1,0,0.1,0.1,0.1,0.2c0.1-0.2,0.2-0.6,0.2-0.8c-0.7-0.5,0.4-0.4,0.4-0.8 c0-0.3-0.3-0.1-0.1,0.1c-0.1,0.1-0.2,0.2-0.3,0.1c0.1-0.7,0.2-1.8,0.7-2.4c0.1,0.5,0.8-0.9,0-0.2c0-0.2,0-0.4,0-0.5 c0.1-0.8,0.3,0.4,0-0.6c0.2,0.1,0.3,0,0.5,0c-0.3-0.5,0.8-1.1,0-0.9c-0.5-0.6,0.2-0.2,0.3-0.5c0.2-0.4,0.3-0.9,0.3-1.1 c-0.2-0.1,0.1-0.2,0.1-0.2c0.2-0.9,0.3-0.6-0.3-0.3c-0.2-0.1,0.1-0.2,0.1-0.4c1.3-0.2,0.7-1.7,1.2-2.2c-0.2-0.3,0.4,0.1,0.3-0.4 c-0.1-0.2,0.4-0.4,0-0.3c-0.2-0.2,0.1-0.4,0.2-0.5c0.1,0.1,0.1,0.2,0.1,0.3c0.2-0.4,0.3-0.8,0.4-1.2c-0.1,0.2-0.2,0.3-0.4,0.6 c-0.4-0.9,1.4-0.7,0.2-1.1c0.1-0.3,0.4-0.5,0.2-0.8c0.1-0.1,0.3-0.4,0.4-0.1c-0.1,0.2-0.4,1.2-0.1,0.5c0.4-0.4,0.2-1.2,0.7-1.5 c-0.4-0.4-0.3,0.5-0.6,0.6c0.1-0.3-0.5-0.4,0.1-0.5c0-0.1,0.1-0.3-0.1-0.3c0.1,0,0.3-0.7,0.7-0.2c0.7-0.8,0,0.1-0.3-0.4 c-0.3-0.5,0.5-0.6,0.7-0.9c-0.1,0-0.2,0-0.2-0.1c0.1-0.2,0.4-0.2,0.6-0.3c0.2-0.4,0.1-0.6,0.3-0.9c1-2,1.7-4.3,2.6-6.5 c-0.3,0.1-0.3,0.7-0.7,0.9c-0.1-0.4,0.3-0.6,0.2-1.1c1-1.9,1.4-4.1,2.6-5.8c1.2-2.7,2.1-5.4,3.3-8.1c0.1-0.2,0.4-0.7,0.5-0.8 c0.2-0.2,0,0-0.4,0.2c0.3-1,1.4-2.8,1-2.8c-0.1,0.3-0.3,0.4-0.5,0.7c0-0.6,0.7-1.4,0.5-2.1c0.6-0.9,0.1-2,0.7-3 c-0.3,0-0.4-0.3-0.4-0.6C51.7,7.4,52.4,6.2,51.8,6.7 M28.4,62.7c0,0,0.2,0.4,0.2,0.5C28.3,63.2,28.4,62.8,28.4,62.7 M32.2,43.8 c0.1,0,0.2,0.1,0.3,0.1C32.4,44.2,32.2,43.9,32.2,43.8 M28.8,74.1C28.8,74.1,28.8,74.1,28.8,74.1C28.8,74.2,28.8,74.2,28.8,74.1 M29,72.5c0,0.2,0.1,0.2,0.1,0.5C29.1,73,29,73,29,72.5 M31,66.8c0,0.1,0,0.2,0,0.3C31,67.1,30.9,67.1,31,66.8 M31.3,64.8 c0,0.1,0.1,0.2,0.1,0.3C31.3,65,31.2,65,31.3,64.8 M39.2,37.7c0.1-0.2,0.3-0.2,0.4-0.4c0,0.2-0.1,0.3-0.1,0.4 c-0.1,0.1-0.1,0.2-0.2,0.3C39.2,37.9,39.2,37.8,39.2,37.7 M38,40.4c0,0,0.1,0.1-0.2,0.2C37.9,40.6,38,40.5,38,40.4 M37.8,41 c0.1,0,0.1,0,0.1,0.1C37.7,41.3,37.7,41.2,37.8,41 M37.1,41.7c0,0.1,0,0.2,0,0.3C37,42,37,42,37.1,41.7 M36,43.1 c0,0.1,0.2,0.2,0,0.3C36,43.2,36,43.1,36,43.1 M35.6,42.2c0,0,0,0.1,0.1,0.1C35.4,42.5,35.6,42.3,35.6,42.2 M35.6,46.8 c0-0.1,0-0.2,0-0.3C35.6,46.7,35.7,46.7,35.6,46.8 M35.4,54.1c0.1,0.2,0,0.2,0,0.3C35.4,54.3,35.5,54.2,35.4,54.1 M35,52.6 c0.2,0,0,0.2,0,0.2C34.9,53,34.9,52.7,35,52.6 M35,50.5c0,0.1,0,0.3-0.1,0.4C34.8,50.8,34.9,50.7,35,50.5 M34.6,45 c0.2,0.2-0.1,0.9-0.2,0.4C34.6,45.5,34.5,45.2,34.6,45 M33.7,47.2c0.3-0.3,0.8-0.5,0.4,0.1c-0.1,0-0.1,0.1-0.2,0.1 C33.9,47.8,33.8,47.2,33.7,47.2C33.7,47.2,33.6,47.3,33.7,47.2C33.6,47.2,33.7,47.2,33.7,47.2 M33.9,51.3c0,0.1,0,0.3-0.1,0.4 C33.8,51.7,33.7,51.7,33.9,51.3 M33.7,52.4c0,0,0-0.1-0.1-0.1c0.1,0,0.1,0,0.2,0C33.7,52.3,33.7,52.4,33.7,52.4 C33.7,52.6,33.6,52.5,33.7,52.4 M33.7,49.5c0,0.3-0.1,0.5-0.2,0.8c-0.1,0.1-0.1,0.3-0.1,0.5c-0.1-0.2-0.1-0.3,0-0.5 C33.4,50,33.6,49.7,33.7,49.5 M33.4,48.3c0,0.1-0.1,0.1-0.1,0.1C33,48,33.5,47.8,33.4,48.3 M33.3,53c0.3,0,0.4,0.2,0.1,0.2 C33.3,53.5,33.1,53.1,33.3,53 M31.5,63.5c0,0,0.1,0,0.1,0C31.6,63.7,31.6,63.7,31.5,63.5 M31.6,62.8c0,0,0.1,0.1,0.1,0.1 C31.7,62.9,31.6,62.9,31.6,62.8 M32.2,60.8c-0.1,0.3-0.6,0.8-0.3,1.3c-0.1,0-0.1,0.1-0.2,0c-0.6-0.3,0.5-0.5-0.1-0.7 C32.2,61.2,31.5,61.1,32.2,60.8c-0.1-0.1-0.2-0.1-0.3-0.1C31.9,60.5,32.2,60.6,32.2,60.8 M32.3,59.5c0.1-0.6,0.1-0.1,0.2-0.9 C32.5,59,32.5,59.3,32.3,59.5 M32.5,58.1c0,0,0.1-0.3,0.1-0.3C32.6,57.8,32.8,58.1,32.5,58.1 M33,54c0.1-0.2,0.3-0.2,0.4-0.3 c0-0.1,0.1-0.2,0.1-0.2c0,0.1-0.1,0.2-0.1,0.2c-0.1,0.4,0.1,0.9-0.5,0.8C32.8,54.3,33.4,54.2,33,54 M33.9,61.3 c0,0.3-0.1,0.8-0.4,0.6C33.3,61.4,33.8,60.8,33.9,61.3 M34.1,59.3c0-0.1,0.1-0.2,0.1-0.3C34.2,59.1,34.3,59.3,34.1,59.3 M34.3,59.7 c0,0,0.1,0,0.1,0C34.4,59.8,34.4,59.9,34.3,59.7 M34.3,59.3c0,0,0.1,0.1,0.1,0.1C34.4,59.4,34.4,59.5,34.3,59.3 M33.5,59.3 c-0.3,0.1,0.3-0.6-0.4-0.5c0,0.5-0.2,0.3-0.2-0.1c0.1-0.3,0.3,0,0.4-0.1c-0.2-0.4,0.7-0.7,0.2-1.1c0.5-0.1,0.3-1,0.6-1.4 c0.1-0.3,0.2-1,0.4-1.4C34.2,56,34,57.9,33.5,59.3 M34.7,47.7c0,0-0.1,0.1-0.1,0.1v0c0,0,0,0,0,0C34.5,47.6,34.6,47.7,34.7,47.7 C34.7,47.7,34.7,47.7,34.7,47.7C34.7,47.7,34.7,47.7,34.7,47.7 M34.8,53.7c0,0.1,0,0.3-0.1,0.4C34.6,54,34.7,53.9,34.8,53.7 M35.4,55.2c-0.4,0.1-0.1,0.6-0.5,0.8c-0.4-0.3,0.2-0.3,0-0.7c0.1-0.1,0.3-0.1,0.4-0.2c-0.1-0.3-0.1-0.2,0.1-0.1 C35.6,54.7,35.5,55.2,35.4,55.2 M36.1,52.9c-0.2,0.1-0.1,0.5-0.4,0.4c-0.1-0.3,0.3-0.4,0.1-0.6c-0.1,0.2-0.3,0.3-0.3,0.6 c-0.1-0.4,0.3-0.6,0.1-0.7c0.7,0.2-0.1-0.5,0.5-0.5C36.2,52.3,35.9,52.7,36.1,52.9 M36.2,48c-0.6,0,0.3-0.6,0.1-1 C36.8,47.3,36.2,47.7,36.2,48 M36.5,39.9c0-0.1-0.1-0.1-0.1-0.3C36.4,39.7,36.6,39.7,36.5,39.9 M37,47.2c0.4,0-0.1,0.3,0,0.6 C36.8,47.8,37,47.5,37,47.2 M37.2,49.3c0,0.1,0,0.2,0,0.2h0c0,0.1,0,0.1,0,0.2c0-0.1,0-0.1,0-0.2h0C37.2,49.5,37.2,49.4,37.2,49.3 M37.4,46.5c0.1-0.1,0.1-0.2,0.1-0.4C37.5,46.3,37.6,46.4,37.4,46.5 M37.8,44.7C37.8,44.7,37.8,44.7,37.8,44.7 C37.8,44.8,37.8,44.9,37.8,44.7 M38.3,45.4C38.2,45.4,38.3,45.3,38.3,45.4c-0.1-0.1-0.1-0.1-0.1,0C38.2,45.3,38.2,45.3,38.3,45.4 C38.3,45.3,38.3,45.4,38.3,45.4C38.3,45.4,38.4,45.4,38.3,45.4C38.4,45.4,38.3,45.4,38.3,45.4 M38.3,43.8c0,0.3-0.7,0.5-0.5,0.4 c-0.2-0.2-0.2,0.2-0.4,0.2c0.3,0,0.1,0.4,0,0.5c-0.1,0.1-0.1,0.2-0.1,0.2c0.1,0.3,0.4-0.3,0.3,0.2c-0.2,0.2-0.6,0-0.8,0.1 c0.3-0.5-0.4-0.9,0.2-1.3c0.4-0.2,0.9-0.3,1.3-0.6c-0.2-0.2,0-0.6,0.2-0.2C38,43.4,38.5,43.8,38.3,43.8 M38.4,42.8 C38.4,42.8,38.4,42.8,38.4,42.8C38.4,42.9,38.3,42.9,38.4,42.8 M38.5,41.4c-0.3-0.2,0-0.9,0.4-1.2c0,0.1-0.1,0.2,0,0.3 c0.2-0.2,0.4-0.4,0.7-0.7C39.7,41,38.6,40.3,38.5,41.4 M38.6,44.5c0-0.1,0.1-0.1,0.1-0.2C38.8,44.5,38.6,44.4,38.6,44.5 M38.7,42 c0,0,0,0.1,0.1-0.7C38.8,41.5,38.9,41.7,38.7,42 M39.2,42.9c0.2,0,0,0.2,0,0.3c-0.1,0-0.4,0.4-0.3,0c0.1,0.1,0.2-0.1,0.2-0.1 c-0.1-0.2-0.3-0.6,0.1-0.7C39.6,42.8,39.1,42.5,39.2,42.9 M39.4,41.5c0.1,0,0.2,0,0.3,0C39.6,41.5,39.6,41.6,39.4,41.5 M39.5,37.4 c0-0.1,0.1-0.2,0.1-0.3C39.8,37.3,39.5,37.3,39.5,37.4 M42.1,33.6c0,0.1,0,0.2-0.1,0C42.1,33.6,42.1,33.6,42.1,33.6 M41.1,37 c0.1-0.3,0.5-0.6,0.6-0.3C41.5,36.9,41.3,37,41.1,37 M41.8,36c0.2-0.4,0.2-0.8,0.5-1.1C42.1,35.3,42.1,35.7,41.8,36 M42.5,34.3 c-0.1,0-0.3-0.2-0.1-0.2C42.5,34.2,42.5,34.2,42.5,34.3 M42.8,33.9c-0.1,0-0.1-0.1,0.1-0.3C42.8,33.7,42.8,33.8,42.8,33.9 M43.7,30.8c-0.1,0.2-0.3-0.1-0.1-0.1C43.6,30.6,43.7,30.7,43.7,30.8"></path> <path class="st0" d="M30.5,81.7c-0.2-0.1-0.4-0.4-0.6-0.1c-0.1-0.2-0.5-0.3-0.5-0.3s-0.2,0.1-0.5-0.1c-0.3-0.4-0.7,0.1-1.3,0.1 c0.1,0.2-0.1,0.2-0.1,0.3c0.3,0.8-1-0.1-1.3,0.4c-0.3-0.4-0.8,0.5-0.9-0.2c-0.3,0.4-0.7,0.4-0.9,0.8c-0.6-0.3,0,0.5-0.7,0.2 c-1.4,0.8-0.6,2.3-2.2,3.2c0,0.1-0.1,0.5,0.2,0.6c0.8,0.1,0.9,0.9,1,1.5c1,0.5,0.5,1.8,1.4,2.1c-0.2,1.3,0.7-0.6,0.9,0.6 c1,0.4-0.3,0.8,0,1.4c0.1,0.1,0.7,0.5,0.5,0.1c0.9,1.1,0.2-0.9,1-0.9c0-0.1,0.1-0.2,0-0.3c0.8-0.1,0.4-0.6,0.3-1 c0.9,0,0.5,1.5,0.8,1.4c0.2,0.2,0.5-0.9,0.7-1.2c0,0.2,0.2,0.5,0.4,0.2c-0.1-0.4,1.5-1.1,0.8-1.4c1.2-0.6-0.2-1.9,0.9-2.6 c0.1,0.3,0.5-0.4,0.7-0.4c0.2-0.7-0.6-0.8-0.6-1.4C31.2,83.6,30.1,82.8,30.5,81.7 M26.9,90c-0.1-0.6,0.2-1.5,0.4-0.4 C27.3,89.8,27.3,90.1,26.9,90"></path> <path class="st1" d="M67.7,41c1.8-5.3-3.7-9.5-7.7-12.2c0.3-1,0-3-0.5-4.3C57,18.8,49.8,14.4,42.9,13c-0.7-0.2-1.7-0.3-2.7-0.5 c-1.1-0.1-1.9-0.2-3.6-0.1c-4.1,0.2-8.9,1.6-10.3,5.9c-4.7,0.1-10.8,0.2-14,3.8c-2,2.3-1.9,4.2-1.1,6.3c-3,0.9-6.9,2.7-7.5,6.3 c-0.2,2.3,1.6,3.8,3.1,5.5C6.4,40.5,6,40.7,5.5,41c-1.4,1.1-2.9,2.4-2.8,4.3c-0.2,3.6,3.2,6,5.7,7.7c-0.8,0.5-1.5,2-1.7,3 c-0.1,5,4.4,7.2,7.6,9.5c2.1,5.1,7.7,7.6,12.5,8.7c0-0.3,0.1-0.7,0.1-1.1c-0.1,0-0.2,0-0.2-0.1c0,0.2,0,0.3-0.1,0.3 c0-0.1,0-0.3,0-0.3c-4.5-1.2-9-3.6-10.8-6.9c3.7,1.8,7.6,3.2,11.6,4.1c-0.1-0.2-0.1-0.3,0.2-0.2c0-0.1,0-0.1-0.1-0.2 c-0.1,0-0.1,0-0.3,0c0-0.2,0.1-0.5,0.1-0.8c-4.9-1.1-7.6-2.5-11.6-4.2c0.4-2.2,2.9-2.7,5.5-2.5c1.3,0.1,5.5,0.6,9,1.9 c2.4,0.9,4.9,2.3,4.9,3.5c0,1-1.1,1.2-1.1,1.2c0.2,0.4,0.7,0.3,1.5,0.1c0.9-0.3,1.8-1.6,1.1-2.9c-2.1-4-9.5-6.1-14.1-6.3 c-1.6-0.1-3.2,0.1-4.7,0.5c-1.5,0.4-3,1.4-3.5,2.9l-0.2,0.7c-2.8-1.8-5.9-4-6.2-6.6c-0.3-2.2,1.9-3.2,1.9-3.2s1.3,0.7,4.8,2 c4.5,1.7,9.3,3.1,14,4.2c0.1-0.5,0.1-1,0.2-1.5c-0.3-0.1-0.6-0.1-0.9-0.2c-11.2-2.6-16.3-5.2-16.3-5.2c0.2,0,1.1-0.3,1.7-0.4 c5.1-0.9,10.5-0.1,15.8,1.2c5,1.2,10.4,3.6,15.1,6.6c-2.9,0-5.2-0.1-9.8-0.9c-0.1,0.2-0.1,0.2-0.3,0.7c-0.2-0.2,0.3-0.8-0.3-0.5 c-0.2,0.2-0.3,0.4-0.1,0.6c0.5-0.2,0.2,0.4,0.5,0.6c4,0.7,7.9,1,11.4,0.9c1.4,1.6,2.9,3.7,2.8,6c-5.3,1.7-10.4,2.3-17.7,1.1 c0,0,0,0-0.1,0c0,0.1-0.1,0.1-0.1,0.2c0,0.3-0.1,0.6-0.1,1c0.3,0,0.6,0.1,0.9,0.1c5,0.6,10.5,1.1,16.2-0.7 c-3.9,4.2-12.1,4.3-16.9,3.7c-0.5-0.1-1.1-0.1-1.6-0.2c-0.1,0.4-0.2,0.7-0.3,1c1,0.2,2,0.3,2.8,0.4c4.2,0.4,14.7,0.3,18.7-6 c3.9-1.5,8.8-3.9,9.1-8.8c2.8-1.4,6.1-3.9,6.9-7.1c0.7-2.9-0.3-5.6-1.7-7.8C66.2,43.9,67.1,42.9,67.7,41 M36.4,15.2 c9.8,0.3,20.1,5.1,21.7,12.3c-8.6-5.2-18.2-8.3-28.6-9.2c-0.5,0-0.9-0.1-1.3,0C29.7,15.6,34.7,15.3,36.4,15.2 M12.3,25.2 c1.1-2.7,7.5-3.5,10.1-3.6c1.2-0.1,3.8,0,3.8,0s0.2,0.5,0.6,1.1c2.3,3.2,6.8,4.7,10.4,5.4c0.1-0.2,0.5-0.3,0.4-0.6 c-3.3-0.8-7.8-2.5-9.5-5.7c10.7,0.9,20.5,3.8,29.3,9.3c-1,1.9-3.6,3.7-5.5,4.4c-2.1-1-10.9-5.2-18.5-6.6 c-7.6-1.4-14.9-1.9-20.3-0.8l-0.5,0.1C12.4,28.1,11.6,27,12.3,25.2 M5.4,36.1c-0.1-2,1.4-3.1,2.9-3.8c1.4-0.7,2.9-1.1,4.6-1.1 c0,0,1.2,1.2,2.9,2.3c3.9,2.6,11.2,4.8,17.8,5.7c0-0.1,0-0.2,0.2-0.5c0.2-0.2-0.2-0.2-0.2-0.2c0.1-0.1,0.2-0.4,0.2-0.5 c-2-0.3-4.3-0.7-6.9-1.3c-3.4-0.8-8.6-2.9-12.3-5.6c11.1-1.3,21.7,1.7,31.3,5.5l1.7,0.8c-1.5,0.4-3.5,1-6.8,1.1c0,0.1,0,0.2,0,0.3 c0.3,0.6,1-0.3,0.3,0.4c-0.4-0.5-0.6,0.3-0.7,0.2c0.2,0,0.1,0.1,0.1,0.2c0.1,0,0.2,0,0.2,0c0.1-0.1,0.1-0.2,0.3,0c0,0,0,0,0,0 c4.1-0.2,7.1-1.1,8.4-1.5c0.1,0,4.2,2.3,5.9,3.3c2.2,1.3,4.2,2.8,6.1,4.6c-2.5,1.6-5.5,2.3-8.4,3c-7.4-5.6-17.8-8.2-23.7-9.5 c-5.9-1.3-15-1.7-21.2,0.2C6.8,38.8,5.7,37.6,5.4,36.1 M48,60.8c-5.8-5.5-15.4-9.1-20.8-10c-7.4-1.3-13.4-1.2-17.8,1.4 c-2.3-1.5-5.6-3.7-5-6.7c1.2-2.8,5.3-3,5.3-3s6.8,4.5,19.9,7.1c0.4,0.1,0.8,0.2,1.1,0.2c0-0.1,0.1-0.3,0.2-0.1 c0.4-0.2-0.1-0.7-0.1-0.7s0.1,0,0.2-0.3c-7.2-1.4-13.8-3.8-19.7-6.7c6.5-1.3,13.6-0.3,19.9,1.2c6.3,1.5,13.2,4.2,17.2,6.6 c-3.8,0.2-7.4,0.1-11-0.2c0,0.1,0,0.2,0,0.4c-0.1,0-0.2,0.1-0.4,0c0,0.7,0,1-0.1,0.8c6.1,0.7,10.1,0.4,13.3,0.1 c2.9,1.8,6.8,4.8,7.3,8.5C56.1,59.9,51.2,60.6,48,60.8 M56.6,63.6c-1.6,2.1-3.8,3.1-5.9,4c0.4-2-0.4-3.9-1.4-5.5 c3.1-0.2,6.9-1,8.4-1.4C57.6,61.8,57.1,62.7,56.6,63.6 M64.3,54c-0.7,1.6-2.4,3.5-5,4.6c-0.4-3.2-2.4-6.5-4.9-8.6 c2-0.6,5.2-1.4,7.7-2.9C63.7,48.9,65.5,51.4,64.3,54 M63.8,44.2c-2.9-3.3-6.8-5.8-10.5-7.9c1.9-1.1,4-2.4,5.4-4.4 c2.3,1.5,6.6,4.2,7.1,7.8C65.8,41.5,65.3,43.3,63.8,44.2"></path> <g> <path class="st2" d="M228.4,10.1c0-0.1,0.1-0.1,0.1-0.2c0,0-0.1,0-0.1,0C228.4,9.9,228.4,10,228.4,10.1"></path> <path class="st2" d="M228.4,10.2c0,0,0-0.1,0-0.1C228.3,10.2,228.4,10.2,228.4,10.2"></path> <g> <path class="st2" d="M96.5,75l-1.4,0.8c-0.3-0.4-0.5-0.7-0.7-0.9c-0.2-0.2-0.6-0.2-0.9-0.2c-0.5,0-0.9,0.1-1.2,0.4 c-0.3,0.3-0.5,0.6-0.5,1c0,0.5,0.4,1,1.2,1.3l1.1,0.5c0.9,0.4,1.6,0.8,2,1.4c0.4,0.5,0.6,1.2,0.6,2c0,1-0.3,1.9-1,2.6 c-0.7,0.7-1.6,1-2.6,1c-1,0-1.8-0.3-2.4-0.9c-0.6-0.6-1-1.4-1.2-2.5l1.7-0.4c0.1,0.7,0.2,1.1,0.4,1.4c0.3,0.5,0.9,0.7,1.5,0.7 c0.5,0,1-0.2,1.3-0.5c0.4-0.4,0.5-0.8,0.5-1.3c0-0.2,0-0.4-0.1-0.6c-0.1-0.2-0.2-0.3-0.3-0.5c-0.1-0.2-0.3-0.3-0.5-0.4 c-0.2-0.1-0.4-0.3-0.7-0.4l-1.1-0.5c-1.5-0.6-2.3-1.6-2.3-2.9c0-0.8,0.3-1.6,1-2.1c0.6-0.6,1.5-0.9,2.4-0.9 C94.8,73.1,95.8,73.7,96.5,75"></path> <path class="st2" d="M101.8,80v4.6h-1.7V73.3h1.9c0.9,0,1.7,0.1,2.1,0.2c0.5,0.1,0.9,0.4,1.3,0.7c0.7,0.6,1,1.4,1,2.4 c0,1-0.3,1.8-1,2.5c-0.7,0.6-1.6,0.9-2.8,0.9H101.8 M101.8,78.4h0.6c1.6,0,2.3-0.6,2.3-1.8c0-1.2-0.8-1.7-2.4-1.7h-0.6V78.4z"></path> <polygon class="st2" points="115.6,74.9 111.1,74.9 111.1,77.6 115.5,77.6 115.5,79.2 111.1,79.2 111.1,83 115.6,83 115.6,84.6 109.4,84.6 109.4,73.3 115.6,73.3 "></polygon> <path class="st2" d="M127.4,73.9v2c-1-0.8-2-1.2-3.1-1.2c-1.2,0-2.1,0.4-2.9,1.3c-0.8,0.8-1.2,1.8-1.2,3c0,1.2,0.4,2.2,1.2,3 c0.8,0.8,1.8,1.2,2.9,1.2c0.6,0,1.1-0.1,1.5-0.3c0.2-0.1,0.5-0.2,0.7-0.4c0.3-0.2,0.5-0.4,0.8-0.6V84c-1,0.6-2,0.8-3.1,0.8 c-1.6,0-3-0.6-4.1-1.7c-1.1-1.1-1.7-2.5-1.7-4.1c0-1.4,0.5-2.7,1.4-3.8c1.2-1.4,2.7-2.1,4.5-2.1 C125.5,73.1,126.5,73.4,127.4,73.9"></path> <rect x="130.8" y="73.3" class="st2" width="1.7" height="11.3"></rect> <path class="st2" d="M143.1,81.8h-4.8l-1.3,2.7h-1.8l5.6-12l5.4,12h-1.9L143.1,81.8z M142.4,80.2l-1.7-3.8l-1.8,3.8H142.4z"></path> <polygon class="st2" points="150.5,73.3 150.5,83 153.8,83 153.8,84.6 148.8,84.6 148.8,73.3 "></polygon> <rect x="156.6" y="73.3" class="st2" width="1.7" height="11.3"></rect> <path class="st2" d="M168.6,75l-1.4,0.8c-0.3-0.4-0.5-0.7-0.7-0.9c-0.2-0.2-0.6-0.2-0.9-0.2c-0.5,0-0.9,0.1-1.2,0.4 c-0.3,0.3-0.5,0.6-0.5,1c0,0.5,0.4,1,1.2,1.3l1.1,0.5c0.9,0.4,1.6,0.8,2,1.4c0.4,0.5,0.6,1.2,0.6,2c0,1-0.3,1.9-1,2.6 c-0.7,0.7-1.6,1-2.6,1c-1,0-1.8-0.3-2.4-0.9c-0.6-0.6-1-1.4-1.2-2.5l1.7-0.4c0.1,0.7,0.2,1.1,0.4,1.4c0.4,0.5,0.9,0.7,1.5,0.7 c0.5,0,1-0.2,1.3-0.5c0.3-0.4,0.5-0.8,0.5-1.3c0-0.2,0-0.4-0.1-0.6c-0.1-0.2-0.2-0.3-0.3-0.5c-0.1-0.2-0.3-0.3-0.5-0.4 c-0.2-0.1-0.4-0.3-0.7-0.4l-1.1-0.5c-1.5-0.6-2.3-1.6-2.3-2.9c0-0.8,0.3-1.6,1-2.1c0.7-0.6,1.5-0.9,2.4-0.9 C166.9,73.1,167.9,73.7,168.6,75"></path> <polygon class="st2" points="175.5,74.9 175.5,84.6 173.8,84.6 173.8,74.9 171.2,74.9 171.2,73.3 178.1,73.3 178.1,74.9 "></polygon> <path class="st2" d="M187.2,75l-1.4,0.8c-0.3-0.4-0.5-0.7-0.7-0.9c-0.2-0.2-0.6-0.2-0.9-0.2c-0.5,0-0.9,0.1-1.2,0.4 c-0.3,0.3-0.5,0.6-0.5,1c0,0.5,0.4,1,1.2,1.3l1.1,0.5c0.9,0.4,1.6,0.8,2,1.4c0.4,0.5,0.6,1.2,0.6,2c0,1-0.3,1.9-1,2.6 c-0.7,0.7-1.6,1-2.6,1c-1,0-1.8-0.3-2.4-0.9c-0.6-0.6-1-1.4-1.2-2.5l1.7-0.4c0.1,0.7,0.2,1.1,0.4,1.4c0.3,0.5,0.9,0.7,1.5,0.7 c0.5,0,1-0.2,1.3-0.5c0.4-0.4,0.5-0.8,0.5-1.3c0-0.2,0-0.4-0.1-0.6c-0.1-0.2-0.2-0.3-0.3-0.5c-0.1-0.2-0.3-0.3-0.5-0.4 c-0.2-0.1-0.4-0.3-0.7-0.4l-1.1-0.5c-1.5-0.6-2.3-1.6-2.3-2.9c0-0.8,0.3-1.6,1-2.1c0.6-0.6,1.5-0.9,2.4-0.9 C185.5,73.1,186.5,73.7,187.2,75"></path> <rect x="196.7" y="73.3" class="st2" width="1.7" height="11.3"></rect> <polygon class="st2" points="202.3,84.6 202.3,72.5 210.5,81.1 210.5,73.3 212.2,73.3 212.2,85.3 204,76.7 204,84.6 "></polygon> <polygon class="st2" points="225.1,74.9 225.1,84.6 223.4,84.6 223.4,74.9 220.8,74.9 220.8,73.3 227.7,73.3 227.7,74.9 "></polygon> <polygon class="st2" points="232.2,77.7 237,77.7 237,73.3 238.7,73.3 238.7,84.6 237,84.6 237,79.3 232.2,79.3 232.2,84.6 230.5,84.6 230.5,73.3 232.2,73.3 "></polygon> <polygon class="st2" points="248.9,74.9 244.4,74.9 244.4,77.6 248.8,77.6 248.8,79.2 244.4,79.2 244.4,83 248.9,83 248.9,84.6 242.7,84.6 242.7,73.3 248.9,73.3 "></polygon> <path class="st2" d="M264.8,81.8H260l-1.3,2.7h-1.8l5.6-12l5.4,12H266L264.8,81.8z M264.1,80.2l-1.7-3.8l-1.8,3.8H264.1z"></path> <path class="st2" d="M274.4,79.8l3.5,4.8h-2.1l-3.2-4.6h-0.3v4.6h-1.7V73.3h2c1.5,0,2.6,0.3,3.2,0.8c0.7,0.6,1.1,1.4,1.1,2.5 c0,0.8-0.2,1.5-0.7,2.1C275.7,79.2,275.1,79.6,274.4,79.8 M272.2,78.5h0.5c1.6,0,2.4-0.6,2.4-1.8c0-1.2-0.8-1.7-2.4-1.7h-0.6 V78.5z"></path> <polygon class="st2" points="283.7,74.9 283.7,84.6 282,84.6 282,74.9 279.4,74.9 279.4,73.3 286.3,73.3 286.3,74.9 "></polygon> <path class="st2" d="M294.4,78.9c0-1.6,0.6-3,1.7-4.1c1.2-1.1,2.6-1.7,4.2-1.7c1.6,0,3,0.6,4.1,1.7c1.2,1.2,1.7,2.5,1.7,4.1 c0,1.6-0.6,3-1.7,4.1c-1.2,1.1-2.6,1.7-4.2,1.7c-1.5,0-2.8-0.5-3.9-1.5C295,82.2,294.4,80.7,294.4,78.9 M296.1,78.9 c0,1.2,0.4,2.3,1.3,3.1c0.8,0.8,1.8,1.2,2.9,1.2c1.2,0,2.2-0.4,3-1.2c0.8-0.8,1.2-1.8,1.2-3c0-1.2-0.4-2.2-1.2-3 c-0.8-0.8-1.8-1.2-3-1.2c-1.2,0-2.2,0.4-3,1.2C296.5,76.7,296.1,77.7,296.1,78.9"></path> <polygon class="st2" points="315.2,74.9 311.2,74.9 311.2,77.6 315,77.6 315,79.2 311.2,79.2 311.2,84.6 309.5,84.6 309.5,73.3 315.2,73.3 "></polygon> <polygon class="st2" points="327.3,74.9 327.3,84.6 325.6,84.6 325.6,74.9 323,74.9 323,73.3 329.9,73.3 329.9,74.9 "></polygon> <path class="st2" d="M336.5,79.8l3.5,4.8h-2.1l-3.2-4.6h-0.3v4.6h-1.7V73.3h2c1.5,0,2.6,0.3,3.2,0.8c0.7,0.6,1.1,1.4,1.1,2.5 c0,0.8-0.2,1.5-0.7,2.1C337.8,79.2,337.2,79.6,336.5,79.8 M334.4,78.5h0.5c1.6,0,2.4-0.6,2.4-1.8c0-1.2-0.8-1.7-2.4-1.7h-0.6 V78.5z"></path> <path class="st2" d="M349.5,81.8h-4.8l-1.3,2.7h-1.8l5.6-12l5.4,12h-1.9L349.5,81.8z M348.8,80.2l-1.7-3.8l-1.8,3.8H348.8z"></path> <polygon class="st2" points="354.9,73.3 358,81.1 361.2,73.3 363.1,73.3 358,85.4 353,73.3 "></polygon> <polygon class="st2" points="371.9,74.9 367.4,74.9 367.4,77.6 371.8,77.6 371.8,79.2 367.4,79.2 367.4,83 371.9,83 371.9,84.6 365.7,84.6 365.7,73.3 371.9,73.3 "></polygon> <polygon class="st2" points="377.1,73.3 377.1,83 380.4,83 380.4,84.6 375.4,84.6 375.4,73.3 "></polygon> <path class="st2" d="M114.7,24.6c-2.2,5-8.7,19-12.5,28.2c-0.1-0.3-0.6-1.3-0.6-1.6c1.8-4.8,9.2-20.1,11-27.6 c0.7-3,0.1-4-4.3-4.9c-0.7-0.1-0.5-0.7,0-0.6c2.1,0.3,5.8,0.3,7,0.3c1.7,0,5.1,0,6.4-0.3c0.6-0.1,0.6,0.5,0.1,0.6 C118.8,19.4,117,19.4,114.7,24.6 M100.1,59.2c0.1,0.5-0.6,0.4-0.6,0c-0.5-1.7-1.2-3-2.6-6.6C95.6,49.2,86.5,26,85.4,23.7 c-1.5-3.4-3-4.7-5.5-5c-0.6-0.1-0.6-0.6,0-0.6c2.2,0.2,5.4,0.3,6.7,0.3c1.2,0,4.9-0.2,6.9-0.3c0.6-0.1,0.7,0.5,0,0.6 c-2.7,0.4-4,1.5-3.1,4.6c0.3,1,10.1,24.8,11.2,27.9c0.1,0.3,0.5,1.3,0.6,1.6C101.5,54.7,100.5,57.3,100.1,59.2"></path> <path class="st2" d="M141.1,58.3c-1.6-0.1-3.9-0.2-4.6-0.2c-0.7,0-2.9,0-4.3,0.2c-0.4,0-0.5-0.4-0.1-0.4c2.4-0.4,2.8-0.7,2.8-9.1 v-9.3c0-7.9-0.1-8.1-2.7-8.5c-0.5-0.1-0.4-0.5,0-0.4c1.4,0.2,3.5,0.4,4.3,0.4c0.7,0,3.2-0.1,4.5-0.4c0.4-0.1,0.5,0.3,0.1,0.4 c-2.6,0.6-3,0.6-3,8.5v9.3c0,8.2,0.6,8.7,3.1,9C141.5,58,141.4,58.4,141.1,58.3"></path> <path class="st2" d="M181.6,58.6c-4.8,0-7.1-3.2-13.2-14c-0.4,0-0.7,0-1.1,0c-0.5,0-1.2-0.1-1.5-0.1v-0.6 c0.2,0.1,0.8,0.2,1.6,0.2c3.7,0,6.8-1.5,6.8-6.3c0-4.3-1.5-6.8-5.6-6.8v-0.5c6.3,0,9,3.1,9,7.1c0,3.1-2,5.5-5.6,6.5 c3.3,6.3,8.5,13.7,10.9,13.7c0.6,0,0.9-0.1,1.4-0.5c0.4-0.3,0.6,0,0.3,0.3C183.9,58.1,182.9,58.6,181.6,58.6 M168.8,58.3 c-1.7-0.1-3.5-0.2-4.6-0.2c-0.9,0-3.1,0.1-4.3,0.2c-0.4,0-0.4-0.3,0-0.4c2.6-0.2,2.7-0.8,2.7-9.1v-9.3c0-7.9-0.4-8.2-2.3-8.6 c-0.4-0.1-0.3-0.4,0-0.4c1.1,0.1,2.3,0.1,3.1,0.1c0.9,0,3.7-0.3,5.1-0.3V31c-1.1,0-2.5,0.1-2.9,0.3c0.2,1,0.1,3.9,0.1,5.9v11.8 c0,8.2,0.5,8.8,3.1,9.1C169.2,58,169.1,58.4,168.8,58.3"></path> <path class="st2" d="M219.4,37.4c0,0.5-0.3,0.4-0.4,0c-0.2-4.5-2.2-5.4-5.6-5.6c-1-0.1-2.4-0.1-3.5-0.1c0-0.1,0-0.4-0.1-0.5 c0.7,0,2.7,0,3.7-0.1c2.1-0.1,4.7-0.3,6-0.5c0.2-0.2,0.5,0,0.3,0.3C219.7,31.2,219.5,33.7,219.4,37.4 M206.6,31.7 c-0.5,0-2.5,0.1-3.6,0.1c-3.2,0.1-4.8,0.9-5.9,5.1c-0.1,0.4-0.5,0.4-0.4-0.1c0.4-1.9,0.5-5.2,0.5-6c-0.1-0.3,0.2-0.4,0.4-0.2 c1,0.4,3,0.6,5.4,0.6c1.7,0,3.5,0.1,3.8,0.1C206.7,31.5,206.6,31.6,206.6,31.7 M213.6,58.3c-1.5-0.2-4.7-0.3-5.5-0.3 c-0.6,0-3.4,0-5.1,0.3c-0.4,0-0.4-0.3-0.1-0.4c3.1-0.5,3.7-0.7,3.7-9.1c0-3.6,0.1-16.4,0-17.2c0-0.1,0-0.2,0.1-0.4 c0.1,0,2.8,0,3-0.1c0.1,0.1,0.1,0.3,0.1,0.5c-0.2,2-0.1,13.9-0.1,17.3c0,8.3,0.4,8.4,3.9,9C214,58,213.9,58.4,213.6,58.3"></path> <path class="st2" d="M295.1,58.3c0-0.2-0.1-0.4-0.1-0.6c5.4-1.2,8.6-6.1,8.6-11.3c0-8.4-5.5-15.6-11.7-15.6c-0.2,0-0.7,0-1,0.1 c0-0.1-0.1-0.4-0.1-0.6c0.4,0,1.1-0.1,1.6-0.1c8.3,0,14.7,6.4,14.7,14.1C307.1,51.5,301.9,57.1,295.1,58.3 M292.9,58.5 c-8.3,0-14.7-6.5-14.7-14.1c0-7.4,5.6-13.2,12.6-14.1c0,0.2,0.1,0.4,0.1,0.6c-6,0.7-9.2,6-9.2,11.4c0,8.4,5.2,15.6,11.7,15.6 c0.5,0,1.2,0,1.6-0.1c0,0.2,0.1,0.4,0.1,0.6C294.5,58.4,293.6,58.5,292.9,58.5"></path> <path class="st2" d="M338,36.3c-0.7-2.3-1.6-5.2-5.3-5.2c-1,0-2,0.2-2.7,0.4c-0.1-0.1-0.1-0.3-0.2-0.5c1-0.5,2.5-0.7,3.7-0.7 c1.5,0,2.9,0.2,4.1,0.6c0.1-0.4,0.5-0.2,0.4,0.2c0,0.1,0.2,3.4,0.5,5C338.5,36.6,338.1,36.8,338,36.3 M333.7,57.7 c-0.1-0.2-0.2-0.4-0.2-0.5c1.8-0.8,2.7-2.2,2.7-4.6c0-3.2-1.6-5-4.3-6.5c-0.8-0.5-2.2-1.2-3-1.7c-2.9-1.8-4.1-4.1-4.1-6.5 c0-3.7,3.2-6.2,4.9-6.9c0.1,0.2,0.1,0.3,0.2,0.5c-1.8,0.8-2.6,2.3-2.6,4.4c0,2,0.8,3.7,3.1,5.3c0.7,0.5,2.8,1.7,3.7,2.2 c3.3,1.9,4.9,4.3,4.9,7C339.1,52.7,337.9,55.9,333.7,57.7 M329.7,58.5c-2.3,0-3.9-0.1-5.8-1c-0.1,0.4-0.6,0.1-0.4-0.2 c0,0-0.7-6.2-0.7-6.1c0-0.3,0.2-0.5,0.4-0.1c1,4.1,2.5,6.8,6.6,6.8c1.4,0,3-0.4,3.7-0.7c0.1,0.2,0.2,0.4,0.2,0.5 C332.9,58.1,331.5,58.5,329.7,58.5"></path> <path class="st2" d="M372.4,58.3c0-0.2-0.1-0.4-0.1-0.6c5.4-1.2,8.6-6.1,8.6-11.3c0-8.4-5.5-15.6-11.7-15.6c-0.2,0-0.7,0-1,0.1 c0-0.1-0.1-0.4-0.1-0.6c0.4,0,1.1-0.1,1.6-0.1c8.3,0,14.7,6.4,14.7,14.1C384.4,51.5,379.2,57.1,372.4,58.3 M370.2,58.5 c-8.3,0-14.7-6.5-14.7-14.1c0-7.4,5.6-13.2,12.6-14.1c0,0.2,0.1,0.4,0.1,0.6c-6.1,0.7-9.2,6-9.2,11.4c0,8.4,5.2,15.6,11.7,15.6 c0.5,0,1.2,0,1.6-0.1c0,0.2,0.1,0.4,0.1,0.6C371.8,58.4,370.9,58.5,370.2,58.5"></path> <path class="st2" d="M260.5,38.1c0,0.6,0,1.5,0,2.2c0-0.1-0.3,0-0.4,0c-0.1,0-0.6-0.1-0.6-0.1s0-1.4,0-2.1 c-0.2-5.5-0.8-6.3-3.8-6.8c-0.4,0-0.4-0.4,0-0.4c1.6,0.1,3,0.3,4.3,0.3c1.3,0,2.7-0.1,4.2-0.3c0.3,0,0.3,0.3,0,0.4 C261.4,31.7,260.5,33.4,260.5,38.1 M249.1,59.1c-7.8,0-10.9-4.7-11.1-9.4c-0.2-3.6-0.2-6.2-0.1-9.8c0.1-7.9,0-8.2-2.4-8.5 c-0.4-0.1-0.3-0.4,0.1-0.4c1.7,0.2,3,0.3,3.9,0.3c1.2,0,3.6,0,5-0.3c0.3,0,0.4,0.3,0,0.4c-2.8,0.6-3.3,0.7-3.5,8.5 c-0.1,4.1,0,6.8,0.1,9c0.2,4.7,2.5,9.4,9.1,9.4c4.3,0,9.3-3.9,9.3-10.5c0-4.4,0-5.1,0-7.5c0-0.2,0.8-0.1,1-0.1v7.7 C260.5,54.8,255.7,59.1,249.1,59.1"></path> <path class="st2" d="M395,55.9c0-1.4-1.1-2.6-2.6-2.6c-1.4,0-2.6,1.2-2.6,2.6c0,1.4,1.2,2.6,2.6,2.6 C393.9,58.5,395,57.3,395,55.9 M392.4,58.2c-1.3,0-2.3-1-2.3-2.3c0-1.3,1-2.3,2.3-2.3c1.3,0,2.3,1,2.3,2.3 C394.7,57.2,393.7,58.2,392.4,58.2"></path> <path class="st2" d="M392.7,56.1c0.4-0.1,0.8-0.4,0.8-0.8c0-0.5-0.3-0.9-1-0.9l-1,0v3h0.4v-1.3h0.5l0.8,1.3h0.5L392.7,56.1 M391.8,55.8v-1h0.6c0.4,0,0.7,0.1,0.7,0.5c0,0.4-0.4,0.5-0.8,0.5H391.8z"></path> </g> </g> </g> <path class="st2" d="M1202.1,9c10-0.2,19.6,3.6,26.9,10.3c0.9,0.7,1,2,0.2,2.9c-0.1,0.1-0.2,0.2-0.2,0.2l-4.9,5c-0.8,1-1.8,1-2.8,0 c-5.4-4.7-12.2-7.3-19.4-7.5c-15.7,0.4-28.1,13.4-27.7,29.1c0,0,0,0,0,0c-0.2,15.7,12.3,28.6,28,28.8c0,0,0.1,0,0.1,0 c7.1-0.1,13.8-2.7,19.2-7.4c0.8-0.7,2-0.7,2.8,0l5.1,5c0.8,0.8,0.9,2.1,0,3c0,0,0,0,0,0c-7.2,7-17,10.9-27,10.8 c-22.1,0-40.1-18-40.1-40.1s18-40.1,40.1-40.1L1202.1,9z"></path> <path class="st3" d="M1192.1,46.3c1.2,0.4,2.3,1.1,3.2,1.9v-0.1c0.4-0.5,0.8-1,1.1-1.5c0.4-0.7,0.7-1.4,0.9-2.1 c0.1-0.2,0.1-0.5,0.2-0.7v-0.4c0-0.3,0-0.5,0-0.7c0.1-1,0.1-2.1,0-3.1c-0.1-1.2-0.4-2.4-0.7-3.5c-0.1-0.2-0.1-0.4-0.2-0.5 c-0.3-0.5-0.8-0.9-1.4-1.1c-0.5-0.1-0.9-0.1-1.4,0c-0.6,0.2-1.2,0.6-1.5,1.2c-0.3,0.6-0.4,1.3-0.2,1.9c0,0.2,0,0.4,0.2,0.6l0.2,0.7 v0.5v0.5c0.2,0.9,0.2,1.9,0,2.8c-0.1,0.3-0.1,0.7-0.2,1c0,0.3-0.2,0.6-0.4,0.8c-0.2,0.3-0.4,0.6-0.7,0.9c-0.2,0.2-0.4,0.5-0.7,0.7 l-0.2,0.1l0.6,0.2L1192.1,46.3z"></path> <path class="st3" d="M1186,43.2c1.7,0,3-1.3,3-3c0-1.7-1.3-3-3-3s-3,1.3-3,3c0,0,0,0,0,0C1183,41.8,1184.3,43.2,1186,43.2z"></path> <path class="st4" d="M1192.4,55.7c0.2,0.3,0.4,0.7,0.5,1c0.1,0.3,0.2,0.6,0.2,0.9c0,0.1,0,0.1,0,0.2l0.5-0.4l0.6-0.5 c1-0.8,2.1-1.4,3.3-1.9v-0.2c-0.2-0.6-0.4-1.1-0.7-1.6c-0.4-0.7-0.9-1.3-1.4-1.9l-0.6-0.6l-0.3-0.3l-0.5-0.4 c-0.9-0.6-1.8-1.2-2.8-1.6c-1.1-0.5-2.3-0.9-3.4-1.2h-0.5c-0.6,0-1.2,0.3-1.7,0.7c-0.3,0.3-0.6,0.8-0.7,1.2 c-0.2,0.6-0.1,1.3,0.3,1.9c0.3,0.5,0.9,0.9,1.5,1.1l0.7,0.2l0.7,0.2l0.5,0.2l0.4,0.2c0.8,0.3,1.6,0.8,2.3,1.4l0.7,0.7 C1192.1,55.2,1192.3,55.4,1192.4,55.7z"></path> <path class="st4" d="M1187.4,56.5c-0.4-0.3-1-0.4-1.5-0.4c-1.7,0-3,1.4-3,3c0,0.3,0,0.5,0.1,0.8c0.2,0.8,0.7,1.4,1.4,1.8 c0.4,0.3,1,0.4,1.5,0.4c1.1,0,2.1-0.6,2.6-1.5C1189.3,59.2,1188.8,57.4,1187.4,56.5C1187.4,56.5,1187.4,56.5,1187.4,56.5z"></path> <path class="st5" d="M1194.9,65.3c0.7,0,1.3-0.3,1.7-0.7l0.5-0.5l0.6-0.5l0.4-0.4l0.4-0.3c0.7-0.5,1.5-1,2.3-1.3 c0.3-0.1,0.7-0.2,1-0.2c0.7-0.1,1.3-0.1,2,0l0.9,0.3h0.2c0-0.2,0-0.4,0-0.6l-0.1-0.8c-0.2-1.2-0.2-2.5,0-3.7h-0.2 c-0.6-0.1-1.2-0.2-1.8-0.2c-0.8,0-1.5,0.1-2.3,0.3l-0.8,0.2l-0.4,0.1l-0.6,0.2c-1,0.4-1.9,0.9-2.8,1.5c-1,0.7-1.9,1.5-2.8,2.4 c-0.1,0.1-0.2,0.3-0.3,0.5c-0.3,0.5-0.4,1.2-0.2,1.8c0.1,0.5,0.3,0.9,0.7,1.2C1193.6,65,1194.2,65.2,1194.9,65.3L1194.9,65.3z"></path> <path class="st5" d="M1202.3,65.7c-0.5,0-1,0.1-1.5,0.4c-1.4,0.9-1.8,2.8-0.9,4.2c0.5,0.8,1.4,1.3,2.4,1.4c0.5,0,1-0.1,1.5-0.4 c1.4-0.8,1.9-2.6,1.1-4.1c0,0,0,0,0,0C1204.3,66.2,1203.3,65.7,1202.3,65.7z"></path> <path class="st6" d="M1212.7,53.1c-1.2-0.4-2.3-1.1-3.2-1.9l-0.1,0.1c-0.4,0.5-0.7,1-1.1,1.5c-0.4,0.7-0.7,1.4-0.9,2.1 c-0.1,0.2-0.1,0.5-0.2,0.7v0.4c0,0.3,0,0.5,0,0.7c-0.1,1-0.1,2.1,0,3.1c0.1,1.2,0.4,2.4,0.7,3.5c0.1,0.2,0.1,0.4,0.2,0.5 c0.3,0.5,0.8,0.9,1.4,1.1c0.4,0.2,0.9,0.2,1.4,0c0.6-0.2,1.1-0.6,1.5-1.2c0.3-0.6,0.4-1.2,0.2-1.9c0-0.2,0-0.5-0.2-0.7l-0.2-0.7 v-0.5v-0.5c-0.1-0.9-0.1-1.8,0-2.8c0.1-0.3,0.2-0.7,0.3-1c0.1-0.3,0.2-0.6,0.4-0.8c0.2-0.3,0.4-0.6,0.7-0.9c0.2-0.2,0.4-0.5,0.7-0.7 l0.2-0.1l-0.6-0.2L1212.7,53.1z"></path> <path class="st6" d="M1218.7,56.3c-1.7,0-3,1.3-3,3c0,1.7,1.3,3,3,3s3-1.3,3-3c0,0,0,0,0,0C1221.8,57.7,1220.4,56.3,1218.7,56.3z"></path> <path class="st7" d="M1217.6,52.2c0.6,0,1.2-0.3,1.7-0.7c0.3-0.3,0.6-0.8,0.7-1.2c0.3-1.3-0.5-2.6-1.8-2.9l-0.7-0.2l-0.7-0.2 l-0.5-0.2l-0.4-0.2c-0.8-0.3-1.6-0.8-2.3-1.4c-0.3-0.2-0.5-0.5-0.7-0.7c-0.2-0.2-0.4-0.5-0.5-0.7c-0.2-0.3-0.4-0.7-0.5-1 c-0.1-0.3-0.2-0.6-0.2-0.9c0,0,0-0.2,0-0.2l-0.5,0.4l-0.6,0.5c-1,0.8-2.1,1.4-3.2,1.9v0.2c0.2,0.6,0.5,1.1,0.7,1.7 c0.4,0.7,0.9,1.3,1.4,1.9l0.6,0.6l0.4,0.3c0.2,0.1,0.3,0.3,0.5,0.4c0.9,0.6,1.8,1.2,2.8,1.6c1.1,0.5,2.2,0.9,3.4,1.2L1217.6,52.2 L1217.6,52.2z"></path> <path class="st7" d="M1217.3,42.9c1.4,0.8,3.3,0.3,4.1-1.1c0.8-1.4,0.3-3.3-1.1-4.1c0,0,0,0,0,0c-0.4-0.3-1-0.4-1.5-0.4 c-1.1,0-2.1,0.6-2.6,1.5c-0.4,0.7-0.5,1.5-0.3,2.3C1216.1,41.9,1216.6,42.6,1217.3,42.9z"></path> <path class="st8" d="M1200.2,39.1c0.2,1.2,0.2,2.5,0,3.7h0.2c1.4,0.3,2.8,0.3,4.1,0l0.7-0.2l0.4-0.1l0.6-0.2c1-0.4,1.9-0.9,2.8-1.5 c1-0.7,1.9-1.5,2.8-2.4c0.1-0.1,0.3-0.3,0.4-0.5c0.3-0.5,0.4-1.2,0.2-1.8c-0.1-0.5-0.3-0.9-0.7-1.2c-0.5-0.4-1.1-0.7-1.7-0.7 c-0.7,0-1.3,0.3-1.8,0.8l-0.5,0.5l-0.6,0.5l-0.4,0.4l-0.4,0.3c-0.7,0.5-1.5,1-2.3,1.3l-1,0.2c-0.7,0.1-1.3,0.1-2,0 c-0.3-0.1-0.6-0.2-0.9-0.3h-0.2c0,0.2,0,0.5,0,0.7L1200.2,39.1z"></path> <path class="st8" d="M1204,33.4c1.5-0.7,2.2-2.5,1.5-4c-0.7-1.5-2.5-2.2-4-1.5c-0.2,0.1-0.4,0.2-0.5,0.3c-0.7,0.4-1.2,1-1.4,1.8 c-0.2,0.8-0.1,1.6,0.3,2.3C1200.8,33.7,1202.5,34.1,1204,33.4z"></path> </svg>