<svg xmlns="http://www.w3.org/2000/svg" xmlns:xlink="http://www.w3.org/1999/xlink" id="Layer_1" x="0px" y="0px" viewBox="0 0 398 95" style="enable-background:new 0 0 398 95;" xml:space="preserve"> <style type="text/css"> .st0{fill:#FFFFFF;} .st1{fill:#F79421;} .st2{fill:#DA205E;} .st3{fill:#652F8F;} .st4{fill:#E90C8B;} .st5{fill:#1B75BC;} .st6{fill:#D7DF28;} </style> <path class="st0" d="M4.4,12.8c-0.5-1-0.1-2.1,0.9-2.6C5.6,10.1,6,10,6.4,10.1h7.4c0.9,0.1,1.7,0.7,2,1.5l13.6,51.3h0.4l18.1-52.5 c0.3-0.8,1-1.3,1.8-1.4h2c0.8,0,1.6,0.5,1.9,1.2L72,62.8h0.5l13.2-51.1c0.3-0.9,1.1-1.5,2-1.5h7.5c1.1-0.1,2,0.6,2.2,1.7 c0,0.4,0,0.8-0.2,1.1L76.2,87.6c-0.3,0.9-1.1,1.5-2,1.5h-1.8c-0.8,0-1.6-0.5-1.9-1.2L50.9,32.5h-0.6L31,87.8 c-0.3,0.7-1.1,1.2-1.9,1.2h-1.7c-0.9,0-1.7-0.7-2-1.5L4.4,12.8z"></path> <path class="st0" d="M111.2,12.3c0-1.2,0.9-2.1,2.1-2.1c0,0,0.1,0,0.1,0h24.9c13.5,0,23.1,8.9,23.1,20.6c0,8.6-6.3,14.7-11.6,17.7 c5.9,2.4,13.8,7.9,13.8,18.1c0,12.5-10.3,21.5-24.3,21.5h-26c-1.2,0-2.1-0.9-2.1-2.1c0,0,0,0,0,0L111.2,12.3z M139.3,77.8 c6.6,0.1,11.9-5.1,12-11.7c0-0.1,0-0.3,0-0.4c0-6.8-6.5-11.7-13.8-11.7h-15.1v23.8H139.3z M137.5,44c6.1,0.2,11.2-4.5,11.5-10.6 c0-0.4,0-0.9,0-1.3c0.4-5.9-4.1-11.1-10-11.5c-0.5,0-1,0-1.5,0h-15V44H137.5z"></path> <path class="st0" d="M180.2,12.3c0-1.2,1-2.1,2.1-2.1h44.4c1.2,0,2.1,1,2.1,2.1v6.2c0,1.2-1,2.1-2.1,2.1h-35.1v22.7h29.7 c1.1,0,2.1,1,2.1,2.1v6.3c0,1.2-0.9,2.1-2.1,2.1l0,0h-29.7v23.9h35.1c1.2,0,2.1,0.9,2.1,2.1v6.1c0,1.2-1,2.1-2.1,2.1h-44.4 c-1.2,0-2.1-1-2.1-2.1L180.2,12.3z"></path> <path class="st0" d="M245.5,11c0.1-1.1,1-2,2.1-2h2.8l48.3,55.9l0,0V12.4c0-1.2,0.9-2.1,2.1-2.1c0,0,0,0,0,0h7.1 c1.2,0,2.1,1,2.1,2.1v74.8c0,1.1-1,2-2.1,2h-2.9l-48.2-57.4l0,0v54.2c0,1.2-0.9,2.1-2.1,2.1c0,0,0,0,0,0h-7.1c-1.2,0-2.1-1-2.1-2.1 V11z"></path> <path class="st0" d="M366.1,9c10-0.2,19.6,3.6,26.9,10.3c0.9,0.7,1,2,0.2,2.9c-0.1,0.1-0.2,0.2-0.2,0.2l-4.9,5c-0.8,1-1.8,1-2.8,0 c-5.4-4.7-12.2-7.3-19.4-7.5c-15.7,0.4-28.1,13.4-27.7,29.1c0,0,0,0,0,0c-0.2,15.7,12.3,28.6,28,28.8c0,0,0.1,0,0.1,0 c7.1-0.1,13.8-2.7,19.2-7.4c0.8-0.7,2-0.7,2.8,0l5.1,5c0.8,0.8,0.9,2.1,0,3c0,0,0,0,0,0c-7.2,7-17,10.9-27,10.8 c-22.1,0-40.1-18-40.1-40.1s18-40.1,40.1-40.1L366.1,9z"></path> <path class="st1" d="M356.1,46.3c1.2,0.4,2.3,1.1,3.2,1.9v-0.1c0.4-0.5,0.8-1,1.1-1.5c0.4-0.7,0.7-1.4,0.9-2.1 c0.1-0.2,0.1-0.5,0.2-0.7v-0.4c0-0.3,0-0.5,0-0.7c0.1-1,0.1-2.1,0-3.1c-0.1-1.2-0.4-2.4-0.7-3.5c-0.1-0.2-0.1-0.4-0.2-0.5 c-0.3-0.5-0.8-0.9-1.4-1.1c-0.5-0.1-0.9-0.1-1.4,0c-0.6,0.2-1.2,0.6-1.5,1.2c-0.3,0.6-0.4,1.3-0.2,1.9c0,0.2,0,0.4,0.2,0.6l0.2,0.7 v0.5v0.5c0.2,0.9,0.2,1.9,0,2.8c-0.1,0.3-0.1,0.7-0.2,1c0,0.3-0.2,0.6-0.4,0.8c-0.2,0.3-0.4,0.6-0.7,0.9c-0.2,0.2-0.4,0.5-0.7,0.7 l-0.2,0.1l0.6,0.2L356.1,46.3z"></path> <path class="st1" d="M350,43.2c1.7,0,3-1.3,3-3c0-1.7-1.3-3-3-3s-3,1.3-3,3c0,0,0,0,0,0C347,41.8,348.3,43.2,350,43.2z"></path> <path class="st2" d="M356.4,55.7c0.2,0.3,0.4,0.7,0.5,1c0.1,0.3,0.2,0.6,0.2,0.9c0,0.1,0,0.1,0,0.2l0.5-0.4l0.6-0.5 c1-0.8,2.1-1.4,3.3-1.9v-0.2c-0.2-0.6-0.4-1.1-0.7-1.6c-0.4-0.7-0.9-1.3-1.4-1.9l-0.6-0.6l-0.3-0.3l-0.5-0.4 c-0.9-0.6-1.8-1.2-2.8-1.6c-1.1-0.5-2.3-0.9-3.4-1.2h-0.5c-0.6,0-1.2,0.3-1.7,0.7c-0.3,0.3-0.6,0.8-0.7,1.2 c-0.2,0.6-0.1,1.3,0.3,1.9c0.3,0.5,0.9,0.9,1.5,1.1l0.7,0.2l0.7,0.2l0.5,0.2l0.4,0.2c0.8,0.3,1.6,0.8,2.3,1.4l0.7,0.7 C356.1,55.2,356.3,55.4,356.4,55.7z"></path> <path class="st2" d="M351.4,56.5c-0.4-0.3-1-0.4-1.5-0.4c-1.7,0-3,1.4-3,3c0,0.3,0,0.5,0.1,0.8c0.2,0.8,0.7,1.4,1.4,1.8 c0.4,0.3,1,0.4,1.5,0.4c1.1,0,2.1-0.6,2.6-1.5C353.3,59.2,352.8,57.4,351.4,56.5C351.4,56.5,351.4,56.5,351.4,56.5z"></path> <path class="st3" d="M358.9,65.3c0.7,0,1.3-0.3,1.7-0.7l0.5-0.5l0.6-0.5l0.4-0.4l0.4-0.3c0.7-0.5,1.5-1,2.3-1.3 c0.3-0.1,0.7-0.2,1-0.2c0.7-0.1,1.3-0.1,2,0l0.9,0.3h0.2c0-0.2,0-0.4,0-0.6l-0.1-0.8c-0.2-1.2-0.2-2.5,0-3.7h-0.2 c-0.6-0.1-1.2-0.2-1.8-0.2c-0.8,0-1.5,0.1-2.3,0.3l-0.8,0.2l-0.4,0.1l-0.6,0.2c-1,0.4-1.9,0.9-2.8,1.5c-1,0.7-1.9,1.5-2.8,2.4 c-0.1,0.1-0.2,0.3-0.3,0.5c-0.3,0.5-0.4,1.2-0.2,1.8c0.1,0.5,0.3,0.9,0.7,1.2C357.6,65,358.2,65.2,358.9,65.3L358.9,65.3z"></path> <path class="st3" d="M366.3,65.7c-0.5,0-1,0.1-1.5,0.4c-1.4,0.9-1.8,2.8-0.9,4.2c0.5,0.8,1.4,1.3,2.4,1.4c0.5,0,1-0.1,1.5-0.4 c1.4-0.8,1.9-2.6,1.1-4.1c0,0,0,0,0,0C368.3,66.2,367.3,65.7,366.3,65.7z"></path> <path class="st4" d="M376.7,53.1c-1.2-0.4-2.3-1.1-3.2-1.9l-0.1,0.1c-0.4,0.5-0.7,1-1.1,1.5c-0.4,0.7-0.7,1.4-0.9,2.1 c-0.1,0.2-0.1,0.5-0.2,0.7v0.4c0,0.3,0,0.5,0,0.7c-0.1,1-0.1,2.1,0,3.1c0.1,1.2,0.4,2.4,0.7,3.5c0.1,0.2,0.1,0.4,0.2,0.5 c0.3,0.5,0.8,0.9,1.4,1.1c0.4,0.2,0.9,0.2,1.4,0c0.6-0.2,1.1-0.6,1.5-1.2c0.3-0.6,0.4-1.2,0.2-1.9c0-0.2,0-0.5-0.2-0.7l-0.2-0.7 v-0.5v-0.5c-0.1-0.9-0.1-1.8,0-2.8c0.1-0.3,0.2-0.7,0.3-1c0.1-0.3,0.2-0.6,0.4-0.8c0.2-0.3,0.4-0.6,0.7-0.9c0.2-0.2,0.4-0.5,0.7-0.7 l0.2-0.1l-0.6-0.2L376.7,53.1z"></path> <path class="st4" d="M382.7,56.3c-1.7,0-3,1.3-3,3c0,1.7,1.3,3,3,3c1.7,0,3-1.3,3-3c0,0,0,0,0,0C385.8,57.7,384.4,56.3,382.7,56.3z"></path> <path class="st5" d="M381.6,52.2c0.6,0,1.2-0.3,1.7-0.7c0.3-0.3,0.6-0.8,0.7-1.2c0.3-1.3-0.5-2.6-1.8-2.9l-0.7-0.2l-0.7-0.2 l-0.5-0.2l-0.4-0.2c-0.8-0.3-1.6-0.8-2.3-1.4c-0.3-0.2-0.5-0.5-0.7-0.7c-0.2-0.2-0.4-0.5-0.5-0.7c-0.2-0.3-0.4-0.7-0.5-1 c-0.1-0.3-0.2-0.6-0.2-0.9c0,0,0-0.2,0-0.2l-0.5,0.4l-0.6,0.5c-1,0.8-2.1,1.4-3.2,1.9v0.2c0.2,0.6,0.5,1.1,0.7,1.7 c0.4,0.7,0.9,1.3,1.4,1.9l0.6,0.6l0.4,0.3c0.2,0.1,0.3,0.3,0.5,0.4c0.9,0.6,1.8,1.2,2.8,1.6c1.1,0.5,2.2,0.9,3.4,1.2L381.6,52.2 L381.6,52.2z"></path> <path class="st5" d="M381.3,42.9c1.4,0.8,3.3,0.3,4.1-1.1c0.8-1.4,0.3-3.3-1.1-4.1c0,0,0,0,0,0c-0.4-0.3-1-0.4-1.5-0.4 c-1.1,0-2.1,0.6-2.6,1.5c-0.4,0.7-0.5,1.5-0.3,2.3C380.1,41.9,380.6,42.6,381.3,42.9z"></path> <path class="st6" d="M364.2,39.1c0.2,1.2,0.2,2.5,0,3.7h0.2c1.4,0.3,2.8,0.3,4.1,0l0.7-0.2l0.4-0.1l0.6-0.2c1-0.4,1.9-0.9,2.8-1.5 c1-0.7,1.9-1.5,2.8-2.4c0.1-0.1,0.3-0.3,0.4-0.5c0.3-0.5,0.4-1.2,0.2-1.8c-0.1-0.5-0.3-0.9-0.7-1.2c-0.5-0.4-1.1-0.7-1.7-0.7 c-0.7,0-1.3,0.3-1.8,0.8l-0.5,0.5l-0.6,0.5l-0.4,0.4l-0.4,0.3c-0.7,0.5-1.5,1-2.3,1.3l-1,0.2c-0.7,0.1-1.3,0.1-2,0 c-0.3-0.1-0.6-0.2-0.9-0.3h-0.2c0,0.2,0,0.5,0,0.7L364.2,39.1z"></path> <path class="st6" d="M368,33.4c1.5-0.7,2.2-2.5,1.5-4c-0.7-1.5-2.5-2.2-4-1.5c-0.2,0.1-0.4,0.2-0.5,0.3c-0.7,0.4-1.2,1-1.4,1.8 c-0.2,0.8-0.1,1.6,0.3,2.3C364.8,33.7,366.5,34.1,368,33.4z"></path> </svg>